<svg xmlns="http://www.w3.org/2000/svg" xmlns:xlink="http://www.w3.org/1999/xlink" xmlns:lucid="lucid" width="528.06" height="338.77"><g transform="translate(-6.265952301523555 -4.00000000003881)" lucid:page-tab-id="Dd_tKfIbSkLA"><path d="M106.67 30a6 6 0 0 1 6-6h145.6a6 6 0 0 1 6 6v82.35a6 6 0 0 1-6 6h-145.6a6 6 0 0 1-6-6z" stroke="#008573" stroke-width="3" fill="#c3f7c8"/><use xlink:href="#a" transform="matrix(1,0,0,1,106.66666666670548,24.00000000003884) translate(29.679012345679013 53.40277777777778)"/><use xlink:href="#b" transform="matrix(1,0,0,1,106.66666666670548,24.00000000003884) translate(103.62962962962963 53.40277777777778)"/><path d="M327.08 30a6 6 0 0 1 6-6h145.6a6 6 0 0 1 6 6v82.35a6 6 0 0 1-6 6h-145.6a6 6 0 0 1-6-6z" stroke="#008573" stroke-width="3" fill="#c3f7c8"/><use xlink:href="#a" transform="matrix(1,0,0,1,327.08275754895976,24.00000000003881) translate(29.679012345679013 53.40277777777778)"/><use xlink:href="#c" transform="matrix(1,0,0,1,327.08275754895976,24.00000000003881) translate(103.62962962962963 53.40277777777778)"/><path d="M136.3 234.43a6 6 0 0 1 6-6h145.6a6 6 0 0 1 6 6v82.34a6 6 0 0 1-6 6H142.3a6 6 0 0 1-6-6z" stroke="#008573" stroke-width="3" fill="#c3f7c8"/><use xlink:href="#a" transform="matrix(1,0,0,1,136.3120446309833,228.42615791757942) translate(29.679012345679013 53.40277777777778)"/><use xlink:href="#d" transform="matrix(1,0,0,1,136.3120446309833,228.42615791757942) translate(103.62962962962963 53.40277777777778)"/><path d="M356.73 234.43a6 6 0 0 1 6-6h145.6a6 6 0 0 1 6 6v82.34a6 6 0 0 1-6 6h-145.6a6 6 0 0 1-6-6z" stroke="#008573" stroke-width="3" fill="#c3f7c8"/><use xlink:href="#a" transform="matrix(1,0,0,1,356.7281355132376,228.42615791757942) translate(29.679012345679013 53.40277777777778)"/><use xlink:href="#e" transform="matrix(1,0,0,1,356.7281355132376,228.42615791757942) translate(103.62962962962963 53.40277777777778)"/><path d="M26.27 163.4a6 6 0 0 1 6-6h476.05a6 6 0 0 1 6 6v20a6 6 0 0 1-6 6H32.27a6 6 0 0 1-6-6z" stroke="#008573" stroke-width="3" fill="#d7faf5"/><use xlink:href="#f" transform="matrix(1,0,0,1,31.265952301523555,162.38606442297993) translate(0 17.77777777777778)"/><path d="M185.46 121.3v33.14" stroke="#008573" stroke-width="3" fill="none"/><path d="M186.96 121.35h-3v-1.54h3zM186.96 155.94h-3v-1.54h3z" stroke="#008573" stroke-width=".05" fill="#008573"/><path d="M215.1 225.46v-33.09" stroke="#008573" stroke-width="3" fill="none"/><path d="M216.6 226.96h-3v-1.54h3zM216.6 192.4h-3v-1.54h3z" stroke="#008573" stroke-width=".05" fill="#008573"/><path d="M435.52 225.46v-33.14" stroke="#008573" stroke-width="3" fill="none"/><path d="M437.02 226.96h-3v-1.54h3zM437.02 192.36h-3v-1.54h3z" stroke="#008573" stroke-width=".05" fill="#008573"/><path d="M405.88 121.3V154.4" stroke="#008573" stroke-width="3" fill="none"/><path d="M407.38 121.35h-3v-1.54h3zM407.38 155.9h-3v-1.54h3z" stroke="#008573" stroke-width=".05" fill="#008573"/><path d="M204.88 122.8v44a6 6 0 0 0 6 6H402.1a6 6 0 0 1 6 6v42.72" stroke="#e81313" stroke-width="6" fill="none"/><path d="M207.88 122.88h-6v-3.08h6z" stroke="#e81313" stroke-width=".05" fill="#e81313"/><path d="M397.93 203.87l10.18 17.2 10.2-17.2" stroke="#e81313" stroke-width="6" fill="none"/><path d="M208.1 188.16a6 6 0 0 1 6-6h228a6 6 0 0 1 6 6v48a6 6 0 0 1-6 6h-228a6 6 0 0 1-6-6z" stroke="#000" stroke-opacity="0" fill="#fff" fill-opacity="0"/><use xlink:href="#g" transform="matrix(1,0,0,1,213.10623772230906,187.1602543085263) translate(54.629629629629626 30.27777777777778)"/><path d="M162.4 122.82v27.66" stroke="#e81313" stroke-width="6" fill="none"/><path d="M165.4 122.9h-6v-3.08h6z" stroke="#e81313" stroke-width=".05" fill="#e81313"/><path d="M152.22 132.83l10.18 17.22 10.18-17.22" stroke="#e81313" stroke-width="6" fill="none"/><defs><path fill="#3a414a" d="M30-248c118-7 216 8 213 122C240-48 200 0 122 0H30v-248zM63-27c89 8 146-16 146-99s-60-101-146-95v194" id="h"/><path fill="#3a414a" d="M100-194c63 0 86 42 84 106H49c0 40 14 67 53 68 26 1 43-12 49-29l28 8c-11 28-37 45-77 45C44 4 14-33 15-96c1-61 26-98 85-98zm52 81c6-60-76-77-97-28-3 7-6 17-6 28h103" id="i"/><path fill="#3a414a" d="M108 0H70L1-190h34L89-25l56-165h34" id="j"/><path fill="#3a414a" d="M24-231v-30h32v30H24zM24 0v-190h32V0H24" id="k"/><path fill="#3a414a" d="M96-169c-40 0-48 33-48 73s9 75 48 75c24 0 41-14 43-38l32 2c-6 37-31 61-74 61-59 0-76-41-82-99-10-93 101-131 147-64 4 7 5 14 7 22l-32 3c-4-21-16-35-41-35" id="l"/><g id="a"><use transform="matrix(0.06172839506172839,0,0,0.06172839506172839,0,0)" xlink:href="#h"/><use transform="matrix(0.06172839506172839,0,0,0.06172839506172839,15.987654320987653,0)" xlink:href="#i"/><use transform="matrix(0.06172839506172839,0,0,0.06172839506172839,28.333333333333332,0)" xlink:href="#j"/><use transform="matrix(0.06172839506172839,0,0,0.06172839506172839,39.44444444444444,0)" xlink:href="#k"/><use transform="matrix(0.06172839506172839,0,0,0.06172839506172839,44.32098765432099,0)" xlink:href="#l"/><use transform="matrix(0.06172839506172839,0,0,0.06172839506172839,55.4320987654321,0)" xlink:href="#i"/></g><path fill="#3a414a" d="M158-156l-14 65h45v19h-49L124 0h-19l15-72H56L41 0H22l15-72H2v-19h39l14-65H11v-19h48l15-71h20l-16 71h64l16-71h19l-16 71h37v19h-40zm-83 0L61-91h63l14-65H75" id="m"/><path fill="#3a414a" d="M27 0v-27h64v-190l-56 39v-29l58-41h29v221h61V0H27" id="n"/><g id="b"><use transform="matrix(0.06172839506172839,0,0,0.06172839506172839,0,0)" xlink:href="#m"/><use transform="matrix(0.06172839506172839,0,0,0.06172839506172839,12.345679012345679,0)" xlink:href="#n"/></g><path fill="#3a414a" d="M101-251c82-7 93 87 43 132L82-64C71-53 59-42 53-27h129V0H18c2-99 128-94 128-182 0-28-16-43-45-43s-46 15-49 41l-32-3c6-41 34-60 81-64" id="o"/><g id="c"><use transform="matrix(0.06172839506172839,0,0,0.06172839506172839,0,0)" xlink:href="#m"/><use transform="matrix(0.06172839506172839,0,0,0.06172839506172839,12.345679012345679,0)" xlink:href="#o"/></g><path fill="#3a414a" d="M126-127c33 6 58 20 58 59 0 88-139 92-164 29-3-8-5-16-6-25l32-3c6 27 21 44 54 44 32 0 52-15 52-46 0-38-36-46-79-43v-28c39 1 72-4 72-42 0-27-17-43-46-43-28 0-47 15-49 41l-32-3c6-42 35-63 81-64 48-1 79 21 79 65 0 36-21 52-52 59" id="p"/><g id="d"><use transform="matrix(0.06172839506172839,0,0,0.06172839506172839,0,0)" xlink:href="#m"/><use transform="matrix(0.06172839506172839,0,0,0.06172839506172839,12.345679012345679,0)" xlink:href="#p"/></g><path fill="#3a414a" d="M155-56V0h-30v-56H8v-25l114-167h33v167h35v25h-35zm-30-156c-27 46-58 90-88 131h88v-131" id="q"/><g id="e"><use transform="matrix(0.06172839506172839,0,0,0.06172839506172839,0,0)" xlink:href="#m"/><use transform="matrix(0.06172839506172839,0,0,0.06172839506172839,12.345679012345679,0)" xlink:href="#q"/></g><path fill="#008573" d="M67-125c0 53 21 87 73 88 37 1 54-22 65-47l45 17C233-25 199 4 140 4 58 4 20-42 15-125 8-235 124-281 211-232c18 10 29 29 36 50l-46 12c-8-25-30-41-62-41-52 0-71 34-72 86" id="r"/><path fill="#008573" d="M199 0l-22-63H83L61 0H9l90-248h61L250 0h-51zm-33-102l-36-108c-10 38-24 72-36 108h72" id="s"/><path fill="#008573" d="M175 0L67-191c6 58 2 128 3 191H24v-248h59L193-55c-6-58-2-129-3-193h46V0h-61" id="t"/><g id="f"><use transform="matrix(0.06172839506172839,0,0,0.06172839506172839,0,0)" xlink:href="#r"/><use transform="matrix(0.06172839506172839,0,0,0.06172839506172839,15.987654320987653,0)" xlink:href="#s"/><use transform="matrix(0.06172839506172839,0,0,0.06172839506172839,31.975308641975307,0)" xlink:href="#t"/></g><path fill="#e81313" d="M67-125c0 53 21 87 73 88 37 1 54-22 65-47l45 17C233-25 199 4 140 4 58 4 20-42 15-125 8-235 124-281 211-232c18 10 29 29 36 50l-46 12c-8-25-30-41-62-41-52 0-71 34-72 86" id="u"/><path fill="#e81313" d="M110-194c64 0 96 36 96 99 0 64-35 99-97 99-61 0-95-36-95-99 0-62 34-99 96-99zm-1 164c35 0 45-28 45-65 0-40-10-65-43-65-34 0-45 26-45 65 0 36 10 65 43 65" id="v"/><path fill="#e81313" d="M220-157c-53 9-28 100-34 157h-49v-107c1-27-5-49-29-50C55-147 81-57 75 0H25l-1-190h47c2 12-1 28 3 38 10-53 101-56 108 0 13-22 24-43 59-42 82 1 51 116 57 194h-49v-107c-1-25-5-48-29-50" id="w"/><path fill="#e81313" d="M133-34C117-15 103 5 69 4 32 3 11-16 11-54c-1-60 55-63 116-61 1-26-3-47-28-47-18 1-26 9-28 27l-52-2c7-38 36-58 82-57s74 22 75 68l1 82c-1 14 12 18 25 15v27c-30 8-71 5-69-32zm-48 3c29 0 43-24 42-57-32 0-66-3-65 30 0 17 8 27 23 27" id="x"/><path fill="#e81313" d="M135-194c87-1 58 113 63 194h-50c-7-57 23-157-34-157-59 0-34 97-39 157H25l-1-190h47c2 12-1 28 3 38 12-26 28-41 61-42" id="y"/><path fill="#e81313" d="M88-194c31-1 46 15 58 34l-1-101h50l1 261h-48c-2-10 0-23-3-31C134-8 116 4 84 4 32 4 16-41 15-95c0-56 19-97 73-99zm17 164c33 0 40-30 41-66 1-37-9-64-41-64s-38 30-39 65c0 43 13 65 39 65" id="z"/><path fill="#e81313" d="M137-138c1-29-70-34-71-4 15 46 118 7 119 86 1 83-164 76-172 9l43-7c4 19 20 25 44 25 33 8 57-30 24-41C81-84 22-81 20-136c-2-80 154-74 161-7" id="A"/><g id="g"><use transform="matrix(0.06172839506172839,0,0,0.06172839506172839,0,0)" xlink:href="#u"/><use transform="matrix(0.06172839506172839,0,0,0.06172839506172839,15.987654320987653,0)" xlink:href="#v"/><use transform="matrix(0.06172839506172839,0,0,0.06172839506172839,29.50617283950617,0)" xlink:href="#w"/><use transform="matrix(0.06172839506172839,0,0,0.06172839506172839,49.25925925925925,0)" xlink:href="#w"/><use transform="matrix(0.06172839506172839,0,0,0.06172839506172839,69.01234567901234,0)" xlink:href="#x"/><use transform="matrix(0.06172839506172839,0,0,0.06172839506172839,81.35802469135803,0)" xlink:href="#y"/><use transform="matrix(0.06172839506172839,0,0,0.06172839506172839,94.87654320987654,0)" xlink:href="#z"/><use transform="matrix(0.06172839506172839,0,0,0.06172839506172839,108.39506172839506,0)" xlink:href="#A"/></g></defs></g></svg>