<svg xmlns="http://www.w3.org/2000/svg" xmlns:xlink="http://www.w3.org/1999/xlink" xmlns:lucid="lucid" width="528.06" height="338.77"><g transform="translate(-6.265952301523555 -4.00000000003881)" lucid:page-tab-id="2b_tY4YkRwhX"><path d="M106.67 30a6 6 0 0 1 6-6h145.6a6 6 0 0 1 6 6v82.35a6 6 0 0 1-6 6h-145.6a6 6 0 0 1-6-6z" stroke="#008573" stroke-width="3" fill="#c3f7c8"/><use xlink:href="#a" transform="matrix(1,0,0,1,106.66666666670548,24.00000000003884) translate(29.679012345679013 53.40277777777778)"/><use xlink:href="#b" transform="matrix(1,0,0,1,106.66666666670548,24.00000000003884) translate(103.62962962962963 53.40277777777778)"/><path d="M327.08 30a6 6 0 0 1 6-6h145.6a6 6 0 0 1 6 6v82.35a6 6 0 0 1-6 6h-145.6a6 6 0 0 1-6-6z" stroke="#008573" stroke-width="3" fill="#c3f7c8"/><use xlink:href="#a" transform="matrix(1,0,0,1,327.08275754895976,24.00000000003881) translate(29.679012345679013 53.40277777777778)"/><use xlink:href="#c" transform="matrix(1,0,0,1,327.08275754895976,24.00000000003881) translate(103.62962962962963 53.40277777777778)"/><path d="M136.3 234.43a6 6 0 0 1 6-6h145.6a6 6 0 0 1 6 6v82.34a6 6 0 0 1-6 6H142.3a6 6 0 0 1-6-6z" stroke="#008573" stroke-width="3" fill="#c3f7c8"/><use xlink:href="#a" transform="matrix(1,0,0,1,136.3120446309833,228.42615791757942) translate(29.679012345679013 53.40277777777778)"/><use xlink:href="#d" transform="matrix(1,0,0,1,136.3120446309833,228.42615791757942) translate(103.62962962962963 53.40277777777778)"/><path d="M356.73 234.43a6 6 0 0 1 6-6h145.6a6 6 0 0 1 6 6v82.34a6 6 0 0 1-6 6h-145.6a6 6 0 0 1-6-6z" stroke="#008573" stroke-width="3" fill="#c3f7c8"/><use xlink:href="#a" transform="matrix(1,0,0,1,356.7281355132376,228.42615791757942) translate(29.679012345679013 53.40277777777778)"/><use xlink:href="#e" transform="matrix(1,0,0,1,356.7281355132376,228.42615791757942) translate(103.62962962962963 53.40277777777778)"/><path d="M26.27 163.4a6 6 0 0 1 6-6h476.05a6 6 0 0 1 6 6v20a6 6 0 0 1-6 6H32.27a6 6 0 0 1-6-6z" stroke="#008573" stroke-width="3" fill="#d7faf5"/><use xlink:href="#f" transform="matrix(1,0,0,1,31.265952301523555,162.38606442297993) translate(0 17.77777777777778)"/><path d="M185.46 121.3v33.14" stroke="#008573" stroke-width="3" fill="none"/><path d="M186.96 121.35h-3v-1.54h3zM186.96 155.94h-3v-1.54h3z" stroke="#008573" stroke-width=".05" fill="#008573"/><path d="M215.1 225.46v-33.09" stroke="#008573" stroke-width="3" fill="none"/><path d="M216.6 226.96h-3v-1.54h3zM216.6 192.4h-3v-1.54h3z" stroke="#008573" stroke-width=".05" fill="#008573"/><path d="M435.52 225.46v-33.14" stroke="#008573" stroke-width="3" fill="none"/><path d="M437.02 226.96h-3v-1.54h3zM437.02 192.36h-3v-1.54h3z" stroke="#008573" stroke-width=".05" fill="#008573"/><path d="M405.88 121.3V154.4" stroke="#008573" stroke-width="3" fill="none"/><path d="M407.38 121.35h-3v-1.54h3zM407.38 155.9h-3v-1.54h3z" stroke="#008573" stroke-width=".05" fill="#008573"/><path d="M231.24 223.95V196.3" stroke="#1071e5" stroke-width="6" fill="none"/><path d="M234.24 226.95h-6v-3.07h6z" stroke="#1071e5" stroke-width=".05" fill="#1071e5"/><path d="M241.42 213.96l-10.18-17.2-10.2 17.2M392.8 223.98v-27.7" stroke="#1071e5" stroke-width="6" fill="none"/><path d="M395.8 226.98h-6v-3.07h6z" stroke="#1071e5" stroke-width=".05" fill="#1071e5"/><path d="M402.98 213.94l-10.18-17.22-10.18 17.22" stroke="#1071e5" stroke-width="6" fill="none"/><path d="M184.98 153.02a6 6 0 0 1 6-6h228a6 6 0 0 1 6 6v48a6 6 0 0 1-6 6h-228a6 6 0 0 1-6-6z" stroke="#000" stroke-opacity="0" fill="#fff" fill-opacity="0"/><use xlink:href="#g" transform="matrix(1,0,0,1,189.9828552355898,152.016877951275) translate(34.87654320987653 30.27777777777778)"/><use xlink:href="#h" transform="matrix(1,0,0,1,189.9828552355898,152.016877951275) translate(89.07407407407406 30.27777777777778)"/><path d="M436.8 122.8v44.57a6 6 0 0 0 6 6H458a6 6 0 0 1 6 6v42.12" stroke="#1071e5" stroke-width="6" fill="none"/><path d="M439.8 122.87h-6v-3.07h6z" stroke="#1071e5" stroke-width=".05" fill="#1071e5"/><path d="M453.82 203.84L464 221.06l10.18-17.22" stroke="#1071e5" stroke-width="6" fill="none"/><defs><path fill="#3a414a" d="M30-248c118-7 216 8 213 122C240-48 200 0 122 0H30v-248zM63-27c89 8 146-16 146-99s-60-101-146-95v194" id="i"/><path fill="#3a414a" d="M100-194c63 0 86 42 84 106H49c0 40 14 67 53 68 26 1 43-12 49-29l28 8c-11 28-37 45-77 45C44 4 14-33 15-96c1-61 26-98 85-98zm52 81c6-60-76-77-97-28-3 7-6 17-6 28h103" id="j"/><path fill="#3a414a" d="M108 0H70L1-190h34L89-25l56-165h34" id="k"/><path fill="#3a414a" d="M24-231v-30h32v30H24zM24 0v-190h32V0H24" id="l"/><path fill="#3a414a" d="M96-169c-40 0-48 33-48 73s9 75 48 75c24 0 41-14 43-38l32 2c-6 37-31 61-74 61-59 0-76-41-82-99-10-93 101-131 147-64 4 7 5 14 7 22l-32 3c-4-21-16-35-41-35" id="m"/><g id="a"><use transform="matrix(0.06172839506172839,0,0,0.06172839506172839,0,0)" xlink:href="#i"/><use transform="matrix(0.06172839506172839,0,0,0.06172839506172839,15.987654320987653,0)" xlink:href="#j"/><use transform="matrix(0.06172839506172839,0,0,0.06172839506172839,28.333333333333332,0)" xlink:href="#k"/><use transform="matrix(0.06172839506172839,0,0,0.06172839506172839,39.44444444444444,0)" xlink:href="#l"/><use transform="matrix(0.06172839506172839,0,0,0.06172839506172839,44.32098765432099,0)" xlink:href="#m"/><use transform="matrix(0.06172839506172839,0,0,0.06172839506172839,55.4320987654321,0)" xlink:href="#j"/></g><path fill="#3a414a" d="M158-156l-14 65h45v19h-49L124 0h-19l15-72H56L41 0H22l15-72H2v-19h39l14-65H11v-19h48l15-71h20l-16 71h64l16-71h19l-16 71h37v19h-40zm-83 0L61-91h63l14-65H75" id="n"/><path fill="#3a414a" d="M27 0v-27h64v-190l-56 39v-29l58-41h29v221h61V0H27" id="o"/><g id="b"><use transform="matrix(0.06172839506172839,0,0,0.06172839506172839,0,0)" xlink:href="#n"/><use transform="matrix(0.06172839506172839,0,0,0.06172839506172839,12.345679012345679,0)" xlink:href="#o"/></g><path fill="#3a414a" d="M101-251c82-7 93 87 43 132L82-64C71-53 59-42 53-27h129V0H18c2-99 128-94 128-182 0-28-16-43-45-43s-46 15-49 41l-32-3c6-41 34-60 81-64" id="p"/><g id="c"><use transform="matrix(0.06172839506172839,0,0,0.06172839506172839,0,0)" xlink:href="#n"/><use transform="matrix(0.06172839506172839,0,0,0.06172839506172839,12.345679012345679,0)" xlink:href="#p"/></g><path fill="#3a414a" d="M126-127c33 6 58 20 58 59 0 88-139 92-164 29-3-8-5-16-6-25l32-3c6 27 21 44 54 44 32 0 52-15 52-46 0-38-36-46-79-43v-28c39 1 72-4 72-42 0-27-17-43-46-43-28 0-47 15-49 41l-32-3c6-42 35-63 81-64 48-1 79 21 79 65 0 36-21 52-52 59" id="q"/><g id="d"><use transform="matrix(0.06172839506172839,0,0,0.06172839506172839,0,0)" xlink:href="#n"/><use transform="matrix(0.06172839506172839,0,0,0.06172839506172839,12.345679012345679,0)" xlink:href="#q"/></g><path fill="#3a414a" d="M155-56V0h-30v-56H8v-25l114-167h33v167h35v25h-35zm-30-156c-27 46-58 90-88 131h88v-131" id="r"/><g id="e"><use transform="matrix(0.06172839506172839,0,0,0.06172839506172839,0,0)" xlink:href="#n"/><use transform="matrix(0.06172839506172839,0,0,0.06172839506172839,12.345679012345679,0)" xlink:href="#r"/></g><path fill="#008573" d="M67-125c0 53 21 87 73 88 37 1 54-22 65-47l45 17C233-25 199 4 140 4 58 4 20-42 15-125 8-235 124-281 211-232c18 10 29 29 36 50l-46 12c-8-25-30-41-62-41-52 0-71 34-72 86" id="s"/><path fill="#008573" d="M199 0l-22-63H83L61 0H9l90-248h61L250 0h-51zm-33-102l-36-108c-10 38-24 72-36 108h72" id="t"/><path fill="#008573" d="M175 0L67-191c6 58 2 128 3 191H24v-248h59L193-55c-6-58-2-129-3-193h46V0h-61" id="u"/><g id="f"><use transform="matrix(0.06172839506172839,0,0,0.06172839506172839,0,0)" xlink:href="#s"/><use transform="matrix(0.06172839506172839,0,0,0.06172839506172839,15.987654320987653,0)" xlink:href="#t"/><use transform="matrix(0.06172839506172839,0,0,0.06172839506172839,31.975308641975307,0)" xlink:href="#u"/></g><path fill="#1071e5" d="M24-248c120-7 223 5 221 122C244-46 201 0 124 0H24v-248zM76-40c74 7 117-18 117-86 0-67-45-88-117-82v168" id="v"/><path fill="#1071e5" d="M133-34C117-15 103 5 69 4 32 3 11-16 11-54c-1-60 55-63 116-61 1-26-3-47-28-47-18 1-26 9-28 27l-52-2c7-38 36-58 82-57s74 22 75 68l1 82c-1 14 12 18 25 15v27c-30 8-71 5-69-32zm-48 3c29 0 43-24 42-57-32 0-66-3-65 30 0 17 8 27 23 27" id="w"/><path fill="#1071e5" d="M115-3C79 11 28 4 28-45v-112H4v-33h27l15-45h31v45h36v33H77v99c-1 23 16 31 38 25v30" id="x"/><g id="g"><use transform="matrix(0.06172839506172839,0,0,0.06172839506172839,0,0)" xlink:href="#v"/><use transform="matrix(0.06172839506172839,0,0,0.06172839506172839,15.987654320987653,0)" xlink:href="#w"/><use transform="matrix(0.06172839506172839,0,0,0.06172839506172839,28.333333333333332,0)" xlink:href="#x"/><use transform="matrix(0.06172839506172839,0,0,0.06172839506172839,35.67901234567901,0)" xlink:href="#w"/></g><path fill="#1071e5" d="M230 0l2-204L168 0h-37L68-204 70 0H24v-248h70l56 185 57-185h69V0h-46" id="y"/><path fill="#1071e5" d="M185-48c-13 30-37 53-82 52C43 2 14-33 14-96s30-98 90-98c62 0 83 45 84 108H66c0 31 8 55 39 56 18 0 30-7 34-22zm-45-69c5-46-57-63-70-21-2 6-4 13-4 21h74" id="z"/><path fill="#1071e5" d="M137-138c1-29-70-34-71-4 15 46 118 7 119 86 1 83-164 76-172 9l43-7c4 19 20 25 44 25 33 8 57-30 24-41C81-84 22-81 20-136c-2-80 154-74 161-7" id="A"/><path fill="#1071e5" d="M195-6C206 82 75 100 31 46c-4-6-6-13-8-21l49-6c3 16 16 24 34 25 40 0 42-37 40-79-11 22-30 35-61 35-53 0-70-43-70-97 0-56 18-96 73-97 30 0 46 14 59 34l2-30h47zm-90-29c32 0 41-27 41-63 0-35-9-62-40-62-32 0-39 29-40 63 0 36 9 62 39 62" id="B"/><g id="h"><use transform="matrix(0.06172839506172839,0,0,0.06172839506172839,0,0)" xlink:href="#y"/><use transform="matrix(0.06172839506172839,0,0,0.06172839506172839,18.456790123456788,0)" xlink:href="#z"/><use transform="matrix(0.06172839506172839,0,0,0.06172839506172839,30.80246913580247,0)" xlink:href="#A"/><use transform="matrix(0.06172839506172839,0,0,0.06172839506172839,43.148148148148145,0)" xlink:href="#A"/><use transform="matrix(0.06172839506172839,0,0,0.06172839506172839,55.49382716049382,0)" xlink:href="#w"/><use transform="matrix(0.06172839506172839,0,0,0.06172839506172839,67.8395061728395,0)" xlink:href="#B"/><use transform="matrix(0.06172839506172839,0,0,0.06172839506172839,81.35802469135803,0)" xlink:href="#z"/><use transform="matrix(0.06172839506172839,0,0,0.06172839506172839,93.70370370370371,0)" xlink:href="#A"/></g></defs></g></svg>